<?xml version="1.0"?>
<svg xmlns="http://www.w3.org/2000/svg" viewBox="0 0 112.27 57.65" style="background-color:transparent;">
  <g id="Layer_2" data-name="Layer 2">
    <g id="Layer_1-2" data-name="Layer 1">
      <path d="M112.14,25.91v-.06L49.34,6.55,44,0h0V0H.05V21.57l0,0,.05.07v.07H.11l5,6.27v.13h.1l.08.09.11-.09H47.69L63.77,57.56l0,0v.11h48.47V25.91ZM44,2.62,47.1,6.4H44ZM5.14,25.4,2.21,21.75H5.14Zm0-5.29H1.69V3L5.14,7.28ZM2.75,1.64H42.4V6.4H6.53ZM47.48,26.51H6.78V8h40.7ZM63.8,54.09,50,28.83l13.8,6.39Zm0-20.68L49.52,26.8V9.38L63.8,27ZM51.19,8.84l55.56,17.07H65.06ZM110.63,56H65.44V27.55h45.19Zm-91-39.61c0,1.74-1.23,2.86-3.21,2.86H15.5v1.61H13.6V13.56h2.78c2,0,3.21,1.1,3.21,2.84m-2,0a1.1,1.1,0,0,0-1.21-1.23H15.5v2.48h.88a1.11,1.11,0,0,0,1.21-1.25m2.29,1.8a2.58,2.58,0,0,1,2.76-2.76A2.58,2.58,0,0,1,25.4,18.2,2.58,2.58,0,0,1,22.64,21a2.58,2.58,0,0,1-2.76-2.78m3.67,0c0-.73-.34-1.18-.91-1.18s-.9.45-.9,1.18.34,1.2.9,1.2.91-.45.91-1.2m2.7-2.65h1.41l.07,1,.08,0A2,2,0,0,1,30,15.47V17.2c-1.18-.13-1.87.42-1.87,1.43v2.24H26.25Zm8.47,5.05a2.47,2.47,0,0,1-1.39.38,1.94,1.94,0,0,1-2-2.18V17h-.89V15.55h.89l.26-1.4h1.57v1.4h1.41V17H33.11v1.75c0,.43.21.69.63.69a1.23,1.23,0,0,0,.57-.14Zm.08-2.4a2.58,2.58,0,0,1,2.76-2.76,2.59,2.59,0,0,1,2.77,2.76,2.77,2.77,0,1,1-5.53,0m3.67,0c0-.73-.33-1.18-.91-1.18s-.9.45-.9,1.18.34,1.2.9,1.2.91-.45.91-1.2M72.74,43.51V34H77v9.49c0,2.05.83,3.28,2.57,3.28s2.58-1.23,2.58-3.28V34h4.23v9.49c0,4.32-2.6,7-6.81,7s-6.8-2.69-6.8-7m15.32,6.57,5.16-8.28-4.81-7.6,0-.18h4.71l3,5.17h.09L99.16,34h4.67l0,.18-4.8,7.6,5.15,8.28,0,.19H99.3L96,44.72h-.07l-3.09,5.55H88.09Z"/>
    </g>
  </g>
</svg>
